<?xml version="1.0" encoding="UTF-8"?>
<svg id="_レイヤー_2" data-name="レイヤー 2" xmlns="http://www.w3.org/2000/svg" viewBox="0 0 943.15 323.48">
  <defs>
    <style>
      .cls-1 {
        fill: #030017;
      }

      .cls-1, .cls-2, .cls-3, .cls-4, .cls-5, .cls-6, .cls-7, .cls-8, .cls-9, .cls-10, .cls-11, .cls-12, .cls-13, .cls-14 {
        stroke-width: 0px;
      }

      .cls-2 {
        fill: #1a1a1a;
      }

      .cls-3 {
        fill: #aad350;
      }

      .cls-4 {
        fill: gray;
      }

      .cls-5 {
        fill: #767676;
      }

      .cls-6 {
        fill: #c8c8c8;
      }

      .cls-7 {
        fill: lime;
      }

      .cls-8 {
        fill: #f2f2f2;
      }

      .cls-9 {
        fill: #003dff;
      }

      .cls-10 {
        fill: red;
      }

      .cls-11 {
        fill: #ccc;
      }

      .cls-12 {
        fill: #fff;
      }

      .cls-13 {
        fill: #202020;
      }

      .cls-14 {
        fill: #e6e6e6;
      }
    </style>
  </defs>
  <g id="_レイヤー_2-2" data-name=" レイヤー 2">
    <g id="_レイヤー_1-2" data-name=" レイヤー 1-2">
      <g>
        <g>
          <g>
            <path class="cls-2" d="M136.35,27.21L9.46,90.66c-5.8,2.9-9.46,8.83-9.46,15.31v140.84c0,6.48,3.66,12.41,9.46,15.31l62.54,32.17c4.82,2.41,10.49,2.41,15.31,0l126.88-63.44c5.8-2.9,9.46-8.83,9.46-15.31V74.69c0-6.48-3.66-12.41-9.46-15.31l-62.54-32.17c-4.82-2.41-10.49-2.41-15.31,0h.01Z"/>
            <g>
              <path class="cls-9" d="M213.15,107.92v61.27c0,6.39-3.61,12.23-9.33,15.09l-92.25,46.13c-11.22,5.61-24.42-2.55-24.42-15.09v-61.27c0-6.39,3.61-12.23,9.33-15.09l92.25-46.13c11.22-5.61,24.42,2.55,24.42,15.09Z"/>
              <path class="cls-10" d="M213.15,110.92v61.27c0,6.39-3.61,12.23-9.33,15.09l-92.25,46.13c-11.22,5.61-24.42-2.55-24.42-15.09v-61.27c0-6.39,3.61-12.23,9.33-15.09l92.25-46.13c11.22-5.61,24.42,2.55,24.42,15.09Z"/>
              <path class="cls-7" d="M216.15,110.92v61.27c0,6.39-3.61,12.23-9.33,15.09l-92.25,46.13c-11.22,5.61-24.42-2.55-24.42-15.09v-61.27c0-6.39,3.61-12.23,9.33-15.09l92.25-46.13c11.22-5.61,24.42,2.55,24.42,15.09Z"/>
              <path class="cls-12" d="M214.65,109.42v61.27c0,6.39-3.61,12.23-9.33,15.09l-92.25,46.13c-11.22,5.61-24.42-2.55-24.42-15.09v-61.27c0-6.39,3.61-12.23,9.33-15.09l92.25-46.13c11.22-5.61,24.42,2.55,24.42,15.09Z"/>
            </g>
            <path class="cls-11" d="M277.34,231.8l-51.69-25.84c-3.23-1.62-7.04-1.57-10.23.13l-124.02,66.14c-3.63,1.94-5.9,5.72-5.9,9.84v4.42c0,4.22,2.39,8.08,6.16,9.97l51.69,25.84c3.23,1.62,7.04,1.57,10.23-.13l124.02-66.14c3.63-1.94,5.9-5.72,5.9-9.84v-4.42c0-4.22-2.39-8.08-6.16-9.97h0Z"/>
            <path class="cls-3" d="M109.63,50.15c-.29-2.01-.69-7.1,2.43-12.64,1.19-2.12,4.42-7.83,10.21-9.33,5.96-1.55,8.48,2.97,13.76,1.3,6.15-1.94,7.51-9.56,10.21-9.33,2.46.21,4.29,5.69,3.56,10.63-1.46,9.84-12.85,15.82-14.42,16.65-11.43,6-22.95,3.42-25.75,2.71h0Z"/>
            <rect class="cls-3" x="108" y="47.69" width="5.24" height="26.22" rx="2.03" ry="2.03"/>
            <g>
              <polygon class="cls-1" points="109.5 2.59 108.96 23.49 111.68 23.44 116.09 2.47 109.5 2.59"/>
              <polygon class="cls-1" points="95.22 6.88 102.17 25.74 104.73 24.83 101.42 4.66 95.22 6.88"/>
              <polygon class="cls-1" points="82.79 14.79 95.99 29.53 98.15 27.87 88.01 10.77 82.79 14.79"/>
            </g>
            <g>
              <path class="cls-8" d="M16.64,220.59l-2.86-1.43v-4.57L.04,207.72v-3.37l13.74,6.87v-4.57l2.86,1.43v12.51h0Z"/>
              <path class="cls-8" d="M16.64,234.91L.04,226.6v-2.81l10.27-1.33L.04,217.32v-3.2l16.6,8.31v2.79l-10.42,1.28,10.42,5.21s0,3.2,0,3.2Z"/>
              <path class="cls-8" d="M5.89,236.19L.04,233.26v-3.37l16.6,8.31v5.94c0,3.82-1.76,5.33-5.32,3.55-3.51-1.76-5.44-5.08-5.44-8.93v-2.57h0ZM8.73,239.7c0,2.33.82,3.73,2.6,4.62,1.59.79,2.45.24,2.45-2.09v-2.09l-5.05-2.53v2.09Z"/>
            </g>
          </g>
          <g>
            <path class="cls-5" d="M136.35,27.21L9.46,90.66c-5.8,2.9-9.46,8.83-9.46,15.31v140.84c0,6.48,3.66,12.41,9.46,15.31l62.54,32.17c4.82,2.41,10.49,2.41,15.31,0l126.88-63.44c5.8-2.9,9.46-8.83,9.46-15.31V74.69c0-6.48-3.66-12.41-9.46-15.31l-62.54-32.17c-4.82-2.41-10.49-2.41-15.31,0h.01Z"/>
            <g>
              <path class="cls-14" d="M213.15,107.92v61.27c0,6.39-3.61,12.23-9.33,15.09l-92.25,46.13c-11.22,5.61-24.42-2.55-24.42-15.09v-61.27c0-6.39,3.61-12.23,9.33-15.09l92.25-46.13c11.22-5.61,24.42,2.55,24.42,15.09Z"/>
              <path class="cls-14" d="M213.15,110.92v61.27c0,6.39-3.61,12.23-9.33,15.09l-92.25,46.13c-11.22,5.61-24.42-2.55-24.42-15.09v-61.27c0-6.39,3.61-12.23,9.33-15.09l92.25-46.13c11.22-5.61,24.42,2.55,24.42,15.09Z"/>
              <path class="cls-14" d="M216.15,110.92v61.27c0,6.39-3.61,12.23-9.33,15.09l-92.25,46.13c-11.22,5.61-24.42-2.55-24.42-15.09v-61.27c0-6.39,3.61-12.23,9.33-15.09l92.25-46.13c11.22-5.61,24.42,2.55,24.42,15.09Z"/>
              <path class="cls-14" d="M214.65,109.42v61.27c0,6.39-3.61,12.23-9.33,15.09l-92.25,46.13c-11.22,5.61-24.42-2.55-24.42-15.09v-61.27c0-6.39,3.61-12.23,9.33-15.09l92.25-46.13c11.22-5.61,24.42,2.55,24.42,15.09Z"/>
              <path class="cls-14" d="M214.65,109.42v61.27c0,6.39-3.61,12.23-9.33,15.09l-92.25,46.13c-11.22,5.61-24.42-2.55-24.42-15.09v-61.27c0-6.39,3.61-12.23,9.33-15.09l92.25-46.13c11.22-5.61,24.42,2.55,24.42,15.09Z"/>
            </g>
            <path class="cls-5" d="M277.34,231.8l-51.69-25.84c-3.23-1.62-7.04-1.57-10.23.13l-124.02,66.14c-3.63,1.94-5.9,5.72-5.9,9.84v4.42c0,4.22,2.39,8.08,6.16,9.97l51.69,25.84c3.23,1.62,7.04,1.57,10.23-.13l124.02-66.14c3.63-1.94,5.9-5.72,5.9-9.84v-4.42c0-4.22-2.39-8.08-6.16-9.97h0Z"/>
            <path class="cls-14" d="M109.63,50.15c-.29-2.01-.69-7.1,2.43-12.64,1.19-2.12,4.42-7.83,10.21-9.33,5.96-1.55,8.48,2.97,13.76,1.3,6.15-1.94,7.51-9.56,10.21-9.33,2.46.21,4.29,5.69,3.56,10.63-1.46,9.84-12.85,15.82-14.42,16.65-11.43,6-22.95,3.42-25.75,2.71h0Z"/>
            <rect class="cls-14" x="108" y="47.69" width="5.24" height="26.22" rx="2.03" ry="2.03"/>
            <g>
              <polygon class="cls-4" points="109.5 2.59 108.96 23.49 111.68 23.44 116.09 2.47 109.5 2.59"/>
              <polygon class="cls-4" points="95.22 6.88 102.17 25.74 104.73 24.83 101.42 4.66 95.22 6.88"/>
              <polygon class="cls-4" points="82.79 14.79 95.99 29.53 98.15 27.87 88.01 10.77 82.79 14.79"/>
            </g>
            <g>
              <path class="cls-14" d="M16.64,220.59l-2.86-1.43v-4.57L.04,207.72v-3.37l13.74,6.87v-4.57l2.86,1.43v12.51h0Z"/>
              <path class="cls-14" d="M16.64,234.91L.04,226.6v-2.81l10.27-1.33L.04,217.32v-3.2l16.6,8.31v2.79l-10.42,1.28,10.42,5.21s0,3.2,0,3.2Z"/>
              <path class="cls-14" d="M5.89,236.19L.04,233.26v-3.37l16.6,8.31v5.94c0,3.82-1.76,5.33-5.32,3.55-3.51-1.76-5.44-5.08-5.44-8.93v-2.57h0ZM8.73,239.7c0,2.33.82,3.73,2.6,4.62,1.59.79,2.45.24,2.45-2.09v-2.09l-5.05-2.53v2.09Z"/>
            </g>
          </g>
        </g>
        <g>
          <path class="cls-12" d="M401.23,43.25v10.31h-16.46v49.46h-12.13v-49.46h-16.46v-10.31h45.05Z"/>
          <path class="cls-12" d="M406.33,43.25h11.09v19.84c1.65-2.17,4.68-4.16,9.7-4.16,8.75,0,15.85,4.16,15.85,16.98v27.11h-11v-25.38c0-6.76-2.43-9.18-6.93-9.18-5.11,0-7.62,3.38-7.62,9.1v25.47h-11.09v-59.77h0Z"/>
          <path class="cls-12" d="M484.21,96.43c-3.03,5.28-8.06,7.36-15.85,7.36-12.99,0-19.23-8.4-19.23-19.58v-5.89c0-13.08,6.58-19.4,17.84-19.4,12.21,0,17.84,7.1,17.84,20.27v4.94h-24.69c.09,5.98,1.99,10.31,8.14,10.31,4.59,0,6.06-1.39,7.71-3.73l8.23,5.72h.01ZM460.13,76.25h13.6c-.26-5.63-2.51-7.97-6.67-7.97-4.42,0-6.5,3.03-6.93,7.97Z"/>
          <path class="cls-12" d="M406.34,129.86v59.77h-10.13l-23.3-36.99v36.99h-11.52v-59.77h10.05l23.39,37.51v-37.51h11.52-.01Z"/>
          <path class="cls-12" d="M449.05,183.05c-3.03,5.28-8.06,7.36-15.85,7.36-12.99,0-19.23-8.4-19.23-19.58v-5.89c0-13.08,6.58-19.4,17.84-19.4,12.21,0,17.84,7.1,17.84,20.27v4.94h-24.69c.09,5.98,1.99,10.31,8.14,10.31,4.59,0,6.06-1.39,7.71-3.73l8.23,5.72h.01ZM424.97,162.87h13.6c-.26-5.63-2.51-7.97-6.67-7.97-4.42,0-6.5,3.03-6.93,7.97Z"/>
          <path class="cls-12" d="M482.83,189.63l-8.4-13.17-8.4,13.17h-12.21l14.21-22.18-13.08-21.14h12.21l7.28,12.39,7.28-12.39h12.21l-13.08,21.14,14.29,22.18h-12.31Z"/>
          <path class="cls-12" d="M498.06,146.32h5.54v-9.53h11v9.53h8.49v9.35h-8.49v18.1c0,4.33.87,6.15,4.94,6.15h3.55v9.7h-4.68c-10.48,0-14.81-2.95-14.81-14.12v-19.84h-5.54v-9.35h0Z"/>
          <path class="cls-12" d="M531.72,159.75h22.44v9.7h-22.44v-9.7Z"/>
          <path class="cls-12" d="M589.64,146.32h11v42.44c0,14.47-8.14,17.84-19.06,17.84-8.06,0-13.17-1.91-16.98-7.8l7.45-5.37c1.91,2.6,4.42,3.9,8.49,3.9,6.58,0,9.1-1.91,9.1-8.58v-1.39c-2.34,1.99-5.37,3.03-9.27,3.03-11.35,0-17.15-8.06-17.15-19.58v-5.89c0-12.65,6.84-19.4,17.15-19.4,3.9,0,6.93,1.04,9.27,3.03v-2.25.02ZM589.64,171.09v-5.46c0-6.93-2.25-10.74-7.71-10.74s-7.71,3.81-7.71,10.74v4.5c0,6.24,1.73,10.91,7.71,10.91s7.71-4.24,7.71-9.96h0Z"/>
          <path class="cls-12" d="M641.88,183.05c-3.03,5.28-8.06,7.36-15.85,7.36-12.99,0-19.23-8.4-19.23-19.58v-5.89c0-13.08,6.58-19.4,17.84-19.4,12.21,0,17.85,7.1,17.85,20.27v4.94h-24.69c.09,5.98,1.99,10.31,8.14,10.31,4.59,0,6.06-1.39,7.71-3.73l8.23,5.72h0ZM617.8,162.87h13.6c-.26-5.63-2.51-7.97-6.67-7.97-4.42,0-6.5,3.03-6.93,7.97Z"/>
          <path class="cls-12" d="M648.05,146.32h12.03v3.64c1.65-2.17,5.11-4.42,9.96-4.42,8.75,0,15.85,4.16,15.85,16.98v27.11h-11v-25.38c0-6.76-2.43-9.18-6.93-9.18-5.11,0-7.62,3.38-7.62,9.1v25.47h-12.29v-43.31h0Z"/>
          <path class="cls-12" d="M727.13,183.05c-3.03,5.28-8.06,7.36-15.85,7.36-12.99,0-19.23-8.4-19.23-19.58v-5.89c0-13.08,6.58-19.4,17.84-19.4,12.21,0,17.85,7.1,17.85,20.27v4.94h-24.69c.09,5.98,1.99,10.31,8.14,10.31,4.59,0,6.06-1.39,7.71-3.73l8.23,5.72h0ZM703.05,162.87h13.6c-.26-5.63-2.51-7.97-6.67-7.97-4.42,0-6.5,3.03-6.93,7.97Z"/>
          <path class="cls-12" d="M757.97,158.36c-1.13-1.65-2.69-3.29-5.46-3.29-4.16,0-6.93,3.03-6.93,9.1v25.47h-11.09v-43.31h10.83v3.64c1.47-2.17,4.33-4.42,9.44-4.42s9.1,2.25,11.69,6.76l-8.49,6.06h.01Z"/>
          <path class="cls-12" d="M785.07,163.65h8.58v-2.51c0-4.85-1.47-6.41-7.71-6.41-4.24,0-6.32.61-8.14,3.47l-7.8-5.46c3.21-5.28,8.06-7.19,16.98-7.19,11.17,0,17.5,3.29,17.5,15.68v28.41h-10.83v-3.81c-1.73,2.95-4.33,4.59-9.35,4.59-9.01,0-15.25-4.76-15.25-13.6s6.93-13.17,16.03-13.17h-.01ZM793.65,171.79h-7.28c-4.5,0-6.5,1.47-6.5,4.85s2.51,4.85,6.32,4.85c5.02,0,7.45-2.17,7.45-8.06v-1.65h.01Z"/>
          <path class="cls-12" d="M810.1,146.32h5.54v-9.53h11v9.53h8.49v9.35h-8.49v18.1c0,4.33.87,6.15,4.94,6.15h3.55v9.7h-4.68c-10.48,0-14.81-2.95-14.81-14.12v-19.84h-5.54v-9.35h0Z"/>
          <path class="cls-12" d="M842.84,129.86h11.95v10.74h-11.95v-10.74ZM843.27,146.32h11.09v43.31h-11.09v-43.31Z"/>
          <path class="cls-12" d="M899.15,170.49c0,11.87-5.63,19.92-18.71,19.92s-18.71-7.8-18.71-19.92v-5.2c0-12.99,6.84-19.75,18.71-19.75s18.71,6.76,18.71,19.75v5.2ZM888.15,170.14v-4.5c0-6.93-2.25-10.74-7.71-10.74s-7.71,3.81-7.71,10.74v4.5c0,6.24,1.56,10.91,7.71,10.91s7.71-4.68,7.71-10.91Z"/>
          <path class="cls-12" d="M906.51,146.32h10.83v3.64c1.65-2.17,5.11-4.42,9.96-4.42,8.75,0,15.85,4.16,15.85,16.98v27.11h-11v-25.38c0-6.76-2.43-9.18-6.93-9.18-5.11,0-7.62,3.38-7.62,9.1v25.47h-11.09v-43.31h0Z"/>
          <path class="cls-12" d="M373.51,255.2v21.05h-12.13v-59.77h21.4c13.77,0,22.35,6.32,22.35,19.14s-8.49,19.58-22.35,19.58h-9.27ZM381.05,244.98c8.4,0,11.95-2.95,11.95-9.35,0-5.72-3.55-8.84-11.95-8.84h-7.54v18.19h7.54Z"/>
          <path class="cls-12" d="M434.49,244.98c-1.13-1.65-2.69-3.29-5.46-3.29-4.16,0-6.93,3.03-6.93,9.1v25.47h-11.09v-43.31h10.83v3.64c1.47-2.17,4.33-4.42,9.44-4.42s9.1,2.25,11.69,6.76l-8.49,6.06h0Z"/>
          <path class="cls-12" d="M482.39,257.11c0,11.87-5.63,19.92-18.71,19.92s-18.71-7.8-18.71-19.92v-5.2c0-12.99,6.84-19.75,18.71-19.75s18.71,6.76,18.71,19.75v5.2ZM471.39,256.76v-4.5c0-6.93-2.25-10.74-7.71-10.74s-7.71,3.81-7.71,10.74v4.5c0,6.24,1.56,10.92,7.71,10.92s7.71-4.68,7.71-10.92Z"/>
          <path class="cls-12" d="M514.6,232.94h11v42.45c0,14.47-8.14,17.84-19.06,17.84-8.06,0-13.17-1.91-16.98-7.8l7.45-5.37c1.91,2.6,4.42,3.9,8.49,3.9,6.58,0,9.1-1.91,9.1-8.58v-1.39c-2.34,1.99-5.37,3.03-9.27,3.03-11.35,0-17.15-8.06-17.15-19.58v-5.89c0-12.65,6.84-19.4,17.15-19.4,3.9,0,6.93,1.04,9.27,3.03v-2.25h0ZM514.6,257.71v-5.46c0-6.93-2.25-10.74-7.71-10.74s-7.71,3.81-7.71,10.74v4.5c0,6.24,1.73,10.92,7.71,10.92s7.71-4.24,7.71-9.96h0Z"/>
          <path class="cls-12" d="M556.8,244.98c-1.13-1.65-2.69-3.29-5.46-3.29-4.16,0-6.93,3.03-6.93,9.1v25.47h-11.09v-43.31h10.83v3.64c1.47-2.17,4.33-4.42,9.44-4.42s9.1,2.25,11.69,6.76l-8.49,6.06h.01Z"/>
          <path class="cls-12" d="M583.89,250.26h8.58v-2.51c0-4.85-1.47-6.41-7.71-6.41-4.24,0-6.32.61-8.14,3.47l-7.8-5.46c3.21-5.28,8.06-7.19,16.98-7.19,11.17,0,17.5,3.29,17.5,15.68v28.41h-10.83v-3.81c-1.73,2.95-4.33,4.59-9.35,4.59-9.01,0-15.25-4.76-15.25-13.6s6.93-13.17,16.03-13.17h-.01ZM592.47,258.4h-7.28c-4.5,0-6.5,1.47-6.5,4.85s2.51,4.85,6.32,4.85c5.02,0,7.45-2.17,7.45-8.06v-1.65h.01Z"/>
          <path class="cls-12" d="M646.44,276.25h-11v-25.38c0-6.93-2.69-9.18-6.58-9.18s-6.84,2.95-6.84,9.1v25.47h-11.09v-43.31h10.83v3.64c1.65-2.25,4.76-4.42,9.62-4.42,5.2,0,9.44,1.99,12.13,5.8,2.77-3.38,7.02-5.8,12.47-5.8,9.44,0,14.99,5.72,14.99,16.98v27.11h-11.09v-25.38c0-6.5-2.25-9.18-6.67-9.18-3.98,0-6.76,2.95-6.76,9.1v25.47-.02Z"/>
          <path class="cls-12" d="M714.1,276.25h-11v-25.38c0-6.93-2.69-9.18-6.58-9.18s-6.84,2.95-6.84,9.1v25.47h-11.09v-43.31h10.83v3.64c1.64-2.25,4.76-4.42,9.61-4.42,5.2,0,9.44,1.99,12.13,5.8,2.77-3.38,7.02-5.8,12.47-5.8,9.44,0,14.99,5.72,14.99,16.98v27.11h-11.09v-25.38c0-6.5-2.25-9.18-6.67-9.18-3.98,0-6.76,2.95-6.76,9.1v25.47-.02Z"/>
          <path class="cls-12" d="M780.96,269.67c-3.03,5.28-8.06,7.36-15.85,7.36-12.99,0-19.23-8.4-19.23-19.58v-5.89c0-13.08,6.58-19.4,17.84-19.4,12.21,0,17.85,7.1,17.85,20.27v4.94h-24.69c.09,5.98,1.99,10.31,8.14,10.31,4.59,0,6.06-1.39,7.71-3.73l8.23,5.72h0ZM756.88,249.49h13.6c-.26-5.63-2.51-7.97-6.67-7.97-4.42,0-6.5,3.03-6.93,7.97Z"/>
          <path class="cls-12" d="M813.01,244.98c-1.13-1.65-2.69-3.29-5.46-3.29-4.16,0-6.93,3.03-6.93,9.1v25.47h-11.09v-43.31h10.83v3.64c1.47-2.17,4.33-4.42,9.44-4.42s9.1,2.25,11.69,6.76l-8.49,6.06h.01Z"/>
        </g>
        <g>
          <path class="cls-14" d="M136.35,20.74L9.46,84.19c-5.8,2.9-9.46,8.83-9.46,15.31v140.84c0,6.48,3.66,12.41,9.46,15.31l62.54,32.17c4.82,2.41,10.49,2.41,15.31,0l126.88-63.44c5.8-2.9,9.46-8.83,9.46-15.31V68.23c0-6.48-3.66-12.41-9.46-15.31l-62.54-32.17c-4.82-2.41-10.49-2.41-15.31,0h.01Z"/>
          <g>
            <path class="cls-9" d="M213.15,101.45v61.27c0,6.39-3.61,12.23-9.33,15.09l-92.25,46.13c-11.22,5.61-24.42-2.55-24.42-15.09v-61.27c0-6.39,3.61-12.23,9.33-15.09l92.25-46.13c11.22-5.61,24.42,2.55,24.42,15.09Z"/>
            <path class="cls-10" d="M213.15,104.45v61.27c0,6.39-3.61,12.23-9.33,15.09l-92.25,46.13c-11.22,5.61-24.42-2.55-24.42-15.09v-61.27c0-6.39,3.61-12.23,9.33-15.09l92.25-46.13c11.22-5.61,24.42,2.55,24.42,15.09Z"/>
            <path class="cls-7" d="M216.15,104.45v61.27c0,6.39-3.61,12.23-9.33,15.09l-92.25,46.13c-11.22,5.61-24.42-2.55-24.42-15.09v-61.27c0-6.39,3.61-12.23,9.33-15.09l92.25-46.13c11.22-5.61,24.42,2.55,24.42,15.09Z"/>
            <path class="cls-13" d="M214.65,102.95v61.27c0,6.39-3.61,12.23-9.33,15.09l-92.25,46.13c-11.22,5.61-24.42-2.55-24.42-15.09v-61.27c0-6.39,3.61-12.23,9.33-15.09l92.25-46.13c11.22-5.61,24.42,2.55,24.42,15.09Z"/>
          </g>
          <path class="cls-6" d="M277.34,225.34l-51.69-25.84c-3.23-1.62-7.04-1.57-10.23.13l-124.02,66.14c-3.63,1.94-5.9,5.72-5.9,9.84v4.42c0,4.22,2.39,8.08,6.16,9.97l51.69,25.84c3.23,1.62,7.04,1.57,10.23-.13l124.02-66.14c3.63-1.94,5.9-5.72,5.9-9.84v-4.42c0-4.22-2.39-8.08-6.16-9.97h0Z"/>
          <path class="cls-3" d="M111,46.14c.17-6.18-14.7-13.02-24.5-11.12-9.32,1.81-8.47,10.43-23.6,16.65-6.95,2.86-11.99,3.04-11.93,4.36.11,2.29,15.55,4.82,30.27,2.99,10.6-1.31,29.57-5.97,29.76-12.87h0Z"/>
          <path class="cls-3" d="M109.63,47.68c-.29-2.01-.69-7.1,2.43-12.64,1.19-2.12,4.42-7.83,10.21-9.33,5.96-1.55,8.48,2.97,13.76,1.3,6.15-1.94,7.51-9.56,10.21-9.33,2.46.21,4.29,5.69,3.56,10.63-1.46,9.84-12.85,15.82-14.42,16.65-11.43,6-22.95,3.42-25.75,2.71h0Z"/>
          <rect class="cls-3" x="108" y="41.22" width="5.24" height="26.22" rx="2.03" ry="2.03"/>
          <g>
            <polygon class="cls-12" points="109.5 .13 108.96 21.02 111.68 20.97 116.09 0 109.5 .13"/>
            <polygon class="cls-12" points="95.22 4.41 102.17 23.28 104.73 22.36 101.42 2.2 95.22 4.41"/>
            <polygon class="cls-12" points="82.79 12.32 95.99 27.06 98.15 25.4 88.01 8.3 82.79 12.32"/>
          </g>
        </g>
      </g>
      <path class="cls-12" d="M848.98,244.56c-1.91-2.26-3.83-3.48-8.53-3.48-2.87,0-5.48.87-5.48,3.39s2.35,3.57,6.96,4.26c10.7,1.65,16.1,5.74,16.1,14.36s-5.83,13.49-17.05,13.49c-8.88,0-14.27-2.17-18.01-7.22l8.53-6.09c1.74,2.35,3.92,3.74,9.31,3.74,3.83,0,6.18-1.31,6.18-3.57,0-2.7-1.91-3.57-7.4-4.44-9.05-1.48-15.66-5.31-15.66-14.09,0-8.27,5.92-13.4,16.79-13.4,7.13,0,13.05,1.65,16.44,7.22l-8.18,5.83h0Z"/>
      <g>
        <path class="cls-4" d="M121.75,192.22l-.13-26.73-7.18,3.64-.02-4.46,21.54-10.91.02,4.46-7.18,3.64.13,26.73-7.18,3.64h0Z"/>
        <path class="cls-4" d="M140.41,182.77l-.16-31.18,7.18-3.64.02,4.46,3.59-1.82.02,4.45,3.59-1.82.02,4.46,3.59-1.82-.07-13.36,7.18-3.64.16,31.18-7.18,3.64-.04-8.91-3.59,1.82-.02-4.46-3.59,1.82-.02-4.46-3.59,1.82.09,17.82-7.18,3.64h0Z"/>
        <path class="cls-4" d="M168.13,168.72l-.16-31.18,21.54-10.91.02,4.46,3.59-1.82.07,13.36-3.59,1.82.02,4.46-14.36,7.28.04,8.91-7.18,3.64v-.02ZM175.24,151.72l10.77-5.46-.07-13.36-10.77,5.46.07,13.36Z"/>
      </g>
      <g>
        <path class="cls-12" d="M121.75,188.4l-.13-26.73-7.18,3.64-.02-4.46,21.54-10.91.02,4.46-7.18,3.64.13,26.73-7.18,3.64h0Z"/>
        <path class="cls-12" d="M140.41,178.94l-.16-31.18,7.18-3.64.02,4.46,3.59-1.82.02,4.45,3.59-1.82.02,4.46,3.59-1.82-.07-13.36,7.18-3.64.16,31.18-7.18,3.64-.04-8.91-3.59,1.82-.02-4.46-3.59,1.82-.02-4.46-3.59,1.82.09,17.82-7.18,3.64h0Z"/>
        <path class="cls-12" d="M168.13,164.9l-.16-31.18,21.54-10.91.02,4.46,3.59-1.82.07,13.36-3.59,1.82.02,4.46-14.36,7.28.04,8.91-7.18,3.64v-.02ZM175.24,147.9l10.77-5.46-.07-13.36-10.77,5.46.07,13.36Z"/>
      </g>
    </g>
  </g>
</svg>