<svg xmlns="http://www.w3.org/2000/svg" width="535.423" height="690.618" viewBox="0 0 141.664 182.726" xmlns:v="https://vecta.io/nano"><style><![CDATA[.U{clip-path:none}.V{filter:url(#A)}.W{fill:#fff}.X{writing-mode:lr-tb}.Y{font-family:Noto Sans}.Z{fill:#d8d8d6}.a{fill:#f5f5f4}.b{font-size:18.667px}.c{stroke-miterlimit:10}.d{fill:#e7e7e6}.e{font-size:13.333px}.f{fill:#39471b}.g{stroke:#607a2c}.h{stroke-width:.427}.i{stroke:#818181}.j{stroke-width:1.4}.k{pointer-events:all}.l{pointer-events:stroke}.m{stroke-width:.556}.n{stroke-width:.624}]]></style><defs><filter id="A" x="0" y="0" width="1" height="1" color-interpolation-filters="sRGB"><feColorMatrix values="0.985 0 0 0 0.0075 0 0.985 0 0 0.0075 0 0 0.985 0 0.0075 0 0 0 1 0" result="A"/><feColorMatrix values="0 0 0 -1 0 0 0 0 -1 0 0 0 0 -1 0 0 0 0 1 0"/><feColorMatrix values="1 0 0 -0.044 -0 0 1 0 -0.044 -0 0 0 1 -0.044 -0 0 0 0 1 0" in="A"/></filter></defs><g transform="translate(-40.561 -71.776)" class="k"><g transform="rotate(90.105)"><g class="d"><path d="M173.314-139.398h10.75v9.204h-10.75z" class="U V"/><path d="M188.356-97.987h7.494v9.219h-7.494z" class="U V"/><path d="M188.363-111.785h6.45v13.806h-6.45z" class="U V"/><path d="M164.714-111.785h6.45v23.01h-6.45z" class="U V"/></g><path d="M177.613-111.785h6.45v16.107h-6.45z" class="U V a"/><path d="M196.963-111.785h21.499v23.01h-21.499z" class="U V Z"/><g class="a"><path d="M222.761-109.484h8.6v18.408h-8.6z" class="U V"/><path d="M212.012-127.892h8.6v11.85h-8.6z" class="U V"/></g><path d="M143.215-125.591h4.3v9.204h-4.3z" class="U V d"/><path d="M151.815-121.795h12.899v5.753h-12.899z" class="U V Z"/><g class="d"><path d="M165.789-137.097h5.375v20.709h-5.375z" class="U V"/><path d="M143.215-137.097h21.499v9.204h-21.499z" class="U V"/></g><path d="M166.864-160.107h6.45v18.408h-6.45z" class="U V a"/><path fill="#e7e7e7" d="M80.868-111.785h6.45v13.806h-6.45z" class="U V"/><path d="M80.868-123.29h6.45v8.054h-6.45z" class="U V a"/><path d="M141.065-157.806h23.649v16.107h-23.649z" class="U V Z"/><path d="M132.465-111.785h6.45v13.806h-6.45z" class="U V a"/><path d="M119.566-111.785h10.75v18.408h-10.75z" class="U V Z"/><path d="M119.566-134.796h6.45v18.408h-6.45z" class="U V d"/><g class="Z"><path d="M128.166-134.796h6.45v9.204h-6.45z" class="U V"/><path d="M199.113-156.655h21.499v14.957h-21.499z" class="U V"/><path d="M91.617-148.602h6.45v32.214h-6.45z" class="U V"/></g><g class="a"><path d="M106.667-137.097h10.75v18.408h-10.75z" class="U V"/><path d="M128.166-165.859h6.45v24.161h-6.45z" class="U V"/></g><path d="M115.266-157.806h10.75v16.107h-10.75z" class="U V Z"/><g class="d"><path d="M104.517-111.785h8.6v9.204h-8.6z" class="U V"/><path d="M102.367-148.602h6.45v9.204h-6.45z" class="U V"/><path d="M91.617-111.785h8.6v16.107h-8.6z" class="U V"/><path d="M81.941-94.126h7.525v6.903h-7.525z" class="U V"/><path d="M160.414-79.571h10.75v4.602h-10.75z" class="U V"/></g><g class="Z"><path d="M212.012-79.571h25.799v27.612h-25.799z" class="U V"/><path d="M188.363-71.517h6.45v8.054h-6.45z" class="U V"/></g><path d="M196.963-79.571h6.45v4.602h-6.45z" class="U V a"/><path d="M204.487-77.845h6.45v20.709h-6.45z" class="U V d"/><path d="M160.414-71.517h10.75v8.629h-10.75z" class="U V Z"/><path d="M160.414-61.163h10.75v13.806h-10.75z" class="U V a"/><path d="M155.254-79.571h4.3v9.204h-4.3z" class="U V Z"/><path d="M225.286-150.903h10.75v4.602h-10.75z" stroke="#000" fill="#5d5d5d" class="U h"/></g><g stroke="#000"><g fill="#5d5d5d"><path transform="matrix(-.001808 .999998 -.999998 -.001864 -.000001 0)" d="M222.123-141.314h8.603v24.94h-8.603z" stroke-width=".424" class="U"/><g transform="rotate(90.105)"><path d="M188.363-139.398h12.899v23.01h-12.899zm-15.049 11.506h10.75v11.505h-10.75zm-32.249 16.107h17.199v18.408h-17.199zm36.548-48.322h6.45v18.408h-6.45z" class="U h"/><path d="M188.728-164.695h8.221v18.38h-8.221z" stroke-width=".455" class="U"/><path d="M173.314-74.969h8.6v27.612h-8.6zm-66.647-4.602h47.298v29.913h-47.298z" class="U h"/></g></g><path fill="#242422" transform="matrix(-.001947 .999998 -.999998 -.001731 -.000001 0)" d="M235.674-144.562h8.593v28.037h-8.593z" stroke-width=".734" stroke-dasharray="0.734119, 0.734119" class="U"/></g></g><path fill="#aad350" stroke="#83ac2b" transform="matrix(-.001836 .999998 -.999998 -.001836 -40.561027 -71.77561)" d="M225.995-162.547h15.694v6.903h-15.694z" stroke-width=".5" class="U k"/><g transform="translate(-40.561 -71.776)"><text xml:space="preserve" style="white-space:pre" x="92.625" transform="matrix(.264583 0 0 .264583 44.527107 73.151672)" fill="none" stroke="#a5a5a5" y="0" class="U X b"><tspan x="298" y="637.625"><tspan text-anchor="middle" stroke="none" class="W Y">駐車場</tspan></tspan></text><text xml:space="preserve" transform="matrix(.264583 0 0 .264583 80.728765 106.17283)" style="white-space:pre" class="U W X Y b"><tspan x="63.888" y="163.12">大学 </tspan><tspan x="63.888" y="183.177">会館</tspan></text><text xml:space="preserve" transform="matrix(.264583 0 0 .264583 42.794533 87.621667)" style="white-space:pre" class="U W X Y b"><tspan x="63.888" y="163.12">陸上 </tspan><tspan x="54.555" y="183.177">競技場</tspan></text><text xml:space="preserve" transform="matrix(.264583 0 0 .264583 42.469132 74.18066)" style="white-space:pre" font-size="16" class="U W X Y"><tspan x="22.711" y="397.355">テニスコート</tspan></text><text xml:space="preserve" transform="matrix(.264583 0 0 .264583 42.094954 72.403317)" style="white-space:pre" class="U W X Y e"><tspan x="287.717" y="400.72">学生 </tspan><tspan x="281.051" y="415.047">支援棟</tspan></text><text xml:space="preserve" transform="matrix(.264583 0 0 .264583 52.384831 73.151672)" style="white-space:pre" class="U W X Y e"><tspan x="288.601" y="458.702">中央 </tspan><tspan x="281.935" y="473.029">図書館</tspan></text><text xml:space="preserve" transform="matrix(.264583 0 0 .264583 42.469131 73.338761)" style="white-space:pre" class="U W X Y e"><tspan x="378.404" y="412.742">一般1号館</tspan></text><text xml:space="preserve" transform="matrix(.264583 0 0 .264583 42.094954 73.151672)" style="white-space:pre" class="U W X Y e"><tspan x="396.258" y="457.995">一般2号館</tspan></text><text xml:space="preserve" transform="matrix(.264583 0 0 .264583 44.527107 73.151672)" style="white-space:pre" class="U W X Y e"><tspan x="288.072" y="585.275">教育4号館</tspan></text><g fill="none" class="l c"><g class="i"><path d="M182.225 249.773l-96.745-.177m96.522-3.065l-96.535-.176" stroke-width=".278" class="U"/><path d="M181.892 248.188l-96.23-.177" stroke-width=".277" stroke-dasharray="2.21862, 2.21862" class="U"/></g><g stroke="#a5a5a5"><path d="M80.671 249.633l-40.019-.096m40.009-3.148l-40.1-.096" stroke-width=".267" class="U"/><path d="M80.592 248.031l-39.581-.09" stroke-width=".258" stroke-dasharray="2.06017, 2.06017" class="U"/></g><g class="i"><path d="M85.639 254.471l.382-182.457" stroke-width=".405" class="U"/><path d="M80.445 254.502l.384-182.616" stroke-width=".403" class="U"/><path d="M83.094 253.529l.381-181.753" stroke-width=".215" stroke-dasharray="2.58213, 2.58213" class="U"/><g stroke-width=".269"><path d="M176.888 79.043l-90.783-.167m90.573-3.075l-90.783-.167" class="U"/><path d="M176.575 77.457l-90.783-.167" stroke-dasharray="2.15492, 2.15492" class="U"/></g></g><g stroke="#a6a6a6" stroke-width=".255"><path d="M80.68 78.846l-36.263-.092m36.181-3.151l-36.263-.092" class="U"/><path d="M80.555 77.261l-36.263-.092" stroke-dasharray="2.03955, 2.03955" class="U"/></g><g class="i"><path d="M170.148 246.454l-.046-32.624" stroke-width=".3" class="U"/><path d="M166.356 246.489l-.044-32.645" stroke-width=".301" class="U"/><path d="M168.287 246.048l-.043-32.242" stroke-width=".22" stroke-dasharray="1.76, 1.76" class="U"/></g></g><path d="M119.837 196.489q.427 0 .832.105.405.105.805.314v-3.929q-.373-.239-.791-.359-.418-.12-.846-.12-.327 0-.65.07-.323.07-.623.209v3.949q.318-.12.632-.18.314-.06.641-.06zm2.365.419q.4-.209.805-.314.405-.105.832-.105.327 0 .641.06.314.06.632.18v-3.949q-.3-.14-.623-.209-.323-.07-.65-.07-.427 0-.846.12-.418.12-.791.359zm-.364 1.177q-.437-.379-.946-.588-.509-.209-1.055-.209-.382 0-.75.11-.368.11-.705.309-.191.11-.368-.011-.177-.12-.177-.349v-4.807q0-.11.05-.209.05-.1.15-.15.418-.239.873-.359.455-.12.928-.12.528 0 1.032.15.505.15.969.449.464-.299.969-.449.505-.15 1.032-.15.473 0 .928.12.455.12.873.359.1.05.15.15.05.1.05.209v4.807q0 .229-.177.349-.177.12-.368.011-.337-.199-.705-.309-.368-.11-.75-.11-.546 0-1.055.209-.509.209-.946.588zm-1.819-3.331z" class="U W"/><g fill="none" stroke="#556a28" class="c l"><path d="M85.93 186.371l92.243.169" class="U j"/><path d="M113.749 183.727l-.115 62.625" stroke-width="1.401" class="U"/><path d="M113.942 78.866l-.201 109.707m-.084 45.147l29.913.055" class="U j"/><path d="M143.59 222.362l-.02 12.11" stroke-width="1.435" class="U"/><path d="M143.59 223.025l9.612.017" class="U j"/><path d="M152.043 234.264l2.404.017" stroke-width="1.488" class="U"/><path d="M152.775 234.798l.02-12.452" stroke-width="1.44" class="U"/></g><g fill="#556a28"><path d="M428.946 787.897l-5.885-10.194h11.771z" transform="matrix(.373814 0 0 .373814 -46.693045 -85.081598)" class="U"/><path d="M428.946 787.897l-5.885-10.194h11.771z" transform="matrix(-.373814 0 0 -.373814 274.04411 531.73655)" class="U"/><path d="M428.946 787.897l-5.885-10.194h11.771z" transform="matrix(0 -.373814 .373814 0 -192.77333 346.71545)" class="U"/><path d="M428.946 787.897l-5.885-10.194h11.771z" transform="matrix(.373814 0 0 .373814 -46.377899 -140.74588)" class="U"/><path d="M428.946 787.897l-5.885-10.194h11.771z" transform="matrix(.373814 0 0 .373814 -46.391499 -187.34133)" class="U"/><path d="M428.946 787.897l-5.885-10.194h11.771z" transform="matrix(0 .373814 -.373814 0 439.1962 26.136163)" class="U"/><path d="M466.391 875.222l-5.885-10.194h11.771z" transform="matrix(0 -.373814 .373814 0 -196.18615 407.98899)" class="U"/><path d="M466.391 875.222l-5.885-10.194h11.771z" transform="matrix(0 -.373814 .373814 0 -176.31112 397.36344)" class="U"/><path d="M466.391 875.222l-5.885-10.194h11.771z" transform="matrix(-.373814 0 0 -.373814 317.8062 553.26589)" class="U"/><path d="M466.391 875.222l-5.885-10.194h11.771z" transform="matrix(.373814 0 0 .373814 -21.524889 -96.356229)" class="U"/></g></g><g transform="translate(3.966 1.376)" class="U"><path d="M62.703 6.296h12.759v6.679H62.703z" class="f g m"/><text xml:space="preserve" transform="matrix(.264583 0 0 .264583 47.06547 -31.738155)" style="white-space:pre" class="W X Y b"><tspan x="63.888" y="163.12">北門</tspan></text></g><g transform="translate(-18.33 -56.711)" class="U"><path d="M56.46 164.76h8.014v13.393H56.46z" class="f g n"/><text xml:space="preserve" transform="matrix(.264583 0 0 .264583 38.684157 127.16023)" style="white-space:pre" class="W X Y b"><tspan x="73.221" y="163.12">正 </tspan><tspan x="73.221" y="183.177">門</tspan></text></g><g transform="translate(3.966 1.376)" class="U"><path d="M54.134 165.381h12.759v6.679H54.134z" class="f g m"/><text xml:space="preserve" transform="matrix(.264583 0 0 .264583 38.497068 127.34732)" style="white-space:pre" class="W X Y b"><tspan x="63.888" y="163.12">南門</tspan></text></g><g transform="translate(68.732 -57.239)" class="U"><path d="M56.46 164.76h8.014v13.393H56.46z" class="f g n"/><text xml:space="preserve" transform="matrix(.264583 0 0 .264583 38.684157 127.16023)" style="white-space:pre" class="W X Y b"><tspan x="73.221" y="163.12">東 </tspan><tspan x="73.221" y="183.177">門</tspan></text></g></svg>