<?xml version="1.0" encoding="UTF-8"?>
<svg id="_レイヤー_2" data-name="レイヤー 2" xmlns="http://www.w3.org/2000/svg" viewBox="0 0 283.5 323.48">
  <defs>
    <style>
      .cls-1 {
        fill: #4d4d4d;
      }

      .cls-1, .cls-2, .cls-3, .cls-4, .cls-5, .cls-6, .cls-7, .cls-8, .cls-9, .cls-10, .cls-11 {
        stroke-width: 0px;
      }

      .cls-2 {
        fill: #030017;
      }

      .cls-3 {
        fill: #1a1a1a;
      }

      .cls-4 {
        fill: #aad350;
      }

      .cls-5 {
        fill: lime;
      }

      .cls-6 {
        fill: #f2f2f2;
      }

      .cls-7 {
        fill: #003dff;
      }

      .cls-8 {
        fill: red;
      }

      .cls-9 {
        fill: #ccc;
      }

      .cls-10 {
        fill: #fff;
      }

      .cls-11 {
        fill: #e6e6e6;
      }
    </style>
  </defs>
  <g id="_レイヤー_1-2" data-name="レイヤー 1">
    <g id="_レイヤー_1-2" data-name=" レイヤー 1-2">
      <g>
        <g>
          <g>
            <path class="cls-3" d="M136.35,27.21L9.46,90.66c-5.8,2.9-9.46,8.83-9.46,15.31v140.84c0,6.48,3.66,12.41,9.46,15.31l62.54,32.17c4.82,2.41,10.49,2.41,15.31,0l126.88-63.44c5.8-2.9,9.46-8.83,9.46-15.31V74.69c0-6.48-3.66-12.41-9.46-15.31l-62.54-32.17c-4.82-2.41-10.49-2.41-15.31,0h.01Z"/>
            <g>
              <path class="cls-7" d="M213.15,107.92v61.27c0,6.39-3.61,12.23-9.33,15.09l-92.25,46.13c-11.22,5.61-24.42-2.55-24.42-15.09v-61.27c0-6.39,3.61-12.23,9.33-15.09l92.25-46.13c11.22-5.61,24.42,2.55,24.42,15.09Z"/>
              <path class="cls-8" d="M213.15,110.92v61.27c0,6.39-3.61,12.23-9.33,15.09l-92.25,46.13c-11.22,5.61-24.42-2.55-24.42-15.09v-61.27c0-6.39,3.61-12.23,9.33-15.09l92.25-46.13c11.22-5.61,24.42,2.55,24.42,15.09Z"/>
              <path class="cls-5" d="M216.15,110.92v61.27c0,6.39-3.61,12.23-9.33,15.09l-92.25,46.13c-11.22,5.61-24.42-2.55-24.42-15.09v-61.27c0-6.39,3.61-12.23,9.33-15.09l92.25-46.13c11.22-5.61,24.42,2.55,24.42,15.09Z"/>
              <path class="cls-10" d="M214.65,109.42v61.27c0,6.39-3.61,12.23-9.33,15.09l-92.25,46.13c-11.22,5.61-24.42-2.55-24.42-15.09v-61.27c0-6.39,3.61-12.23,9.33-15.09l92.25-46.13c11.22-5.61,24.42,2.55,24.42,15.09Z"/>
            </g>
            <path class="cls-9" d="M277.34,231.8l-51.69-25.84c-3.23-1.62-7.04-1.57-10.23.13l-124.02,66.14c-3.63,1.94-5.9,5.72-5.9,9.84v4.42c0,4.22,2.39,8.08,6.16,9.97l51.69,25.84c3.23,1.62,7.04,1.57,10.23-.13l124.02-66.14c3.63-1.94,5.9-5.72,5.9-9.84v-4.42c0-4.22-2.39-8.08-6.16-9.97h0Z"/>
            <path class="cls-4" d="M109.63,50.15c-.29-2.01-.69-7.1,2.43-12.64,1.19-2.12,4.42-7.83,10.21-9.33,5.96-1.55,8.48,2.97,13.76,1.3,6.15-1.94,7.51-9.56,10.21-9.33,2.46.21,4.29,5.69,3.56,10.63-1.46,9.84-12.85,15.82-14.42,16.65-11.43,6-22.95,3.42-25.75,2.71h0Z"/>
            <rect class="cls-4" x="108" y="47.69" width="5.24" height="26.22" rx="2.03" ry="2.03"/>
            <g>
              <polygon class="cls-2" points="109.5 2.59 108.96 23.49 111.68 23.44 116.09 2.47 109.5 2.59"/>
              <polygon class="cls-2" points="95.22 6.88 102.17 25.74 104.73 24.83 101.42 4.66 95.22 6.88"/>
              <polygon class="cls-2" points="82.79 14.79 95.99 29.53 98.15 27.87 88.01 10.77 82.79 14.79"/>
            </g>
            <g>
              <path class="cls-6" d="M16.64,220.59l-2.86-1.43v-4.57L.04,207.72v-3.37l13.74,6.87v-4.57l2.86,1.43v12.51h0Z"/>
              <path class="cls-6" d="M16.64,234.91L.04,226.6v-2.81l10.27-1.33L.04,217.32v-3.2l16.6,8.31v2.79l-10.42,1.28,10.42,5.21s0,3.2,0,3.2Z"/>
              <path class="cls-6" d="M5.89,236.19L.04,233.26v-3.37l16.6,8.31v5.94c0,3.82-1.76,5.33-5.32,3.55-3.51-1.76-5.44-5.08-5.44-8.93v-2.57h0ZM8.73,239.7c0,2.33.82,3.73,2.6,4.62,1.59.79,2.45.24,2.45-2.09v-2.09l-5.05-2.53v2.09Z"/>
            </g>
          </g>
          <g>
            <path class="cls-11" d="M136.35,27.21L9.46,90.66c-5.8,2.9-9.46,8.83-9.46,15.31v140.84c0,6.48,3.66,12.41,9.46,15.31l62.54,32.17c4.82,2.41,10.49,2.41,15.31,0l126.88-63.44c5.8-2.9,9.46-8.83,9.46-15.31V74.69c0-6.48-3.66-12.41-9.46-15.31l-62.54-32.17c-4.82-2.41-10.49-2.41-15.31,0h.01Z"/>
            <g>
              <path class="cls-11" d="M213.15,107.92v61.27c0,6.39-3.61,12.23-9.33,15.09l-92.25,46.13c-11.22,5.61-24.42-2.55-24.42-15.09v-61.27c0-6.39,3.61-12.23,9.33-15.09l92.25-46.13c11.22-5.61,24.42,2.55,24.42,15.09Z"/>
              <path class="cls-11" d="M213.15,110.92v61.27c0,6.39-3.61,12.23-9.33,15.09l-92.25,46.13c-11.22,5.61-24.42-2.55-24.42-15.09v-61.27c0-6.39,3.61-12.23,9.33-15.09l92.25-46.13c11.22-5.61,24.42,2.55,24.42,15.09Z"/>
              <path class="cls-11" d="M216.15,110.92v61.27c0,6.39-3.61,12.23-9.33,15.09l-92.25,46.13c-11.22,5.61-24.42-2.55-24.42-15.09v-61.27c0-6.39,3.61-12.23,9.33-15.09l92.25-46.13c11.22-5.61,24.42,2.55,24.42,15.09Z"/>
              <path class="cls-11" d="M214.65,109.42v61.27c0,6.39-3.61,12.23-9.33,15.09l-92.25,46.13c-11.22,5.61-24.42-2.55-24.42-15.09v-61.27c0-6.39,3.61-12.23,9.33-15.09l92.25-46.13c11.22-5.61,24.42,2.55,24.42,15.09Z"/>
              <path class="cls-11" d="M214.65,109.42v61.27c0,6.39-3.61,12.23-9.33,15.09l-92.25,46.13c-11.22,5.61-24.42-2.55-24.42-15.09v-61.27c0-6.39,3.61-12.23,9.33-15.09l92.25-46.13c11.22-5.61,24.42,2.55,24.42,15.09Z"/>
            </g>
            <path class="cls-11" d="M277.34,231.8l-51.69-25.84c-3.23-1.62-7.04-1.57-10.23.13l-124.02,66.14c-3.63,1.94-5.9,5.72-5.9,9.84v4.42c0,4.22,2.39,8.08,6.16,9.97l51.69,25.84c3.23,1.62,7.04,1.57,10.23-.13l124.02-66.14c3.63-1.94,5.9-5.72,5.9-9.84v-4.42c0-4.22-2.39-8.08-6.16-9.97h0Z"/>
            <path class="cls-11" d="M109.63,50.15c-.29-2.01-.69-7.1,2.43-12.64,1.19-2.12,4.42-7.83,10.21-9.33,5.96-1.55,8.48,2.97,13.76,1.3,6.15-1.94,7.51-9.56,10.21-9.33,2.46.21,4.29,5.69,3.56,10.63-1.46,9.84-12.85,15.82-14.42,16.65-11.43,6-22.95,3.42-25.75,2.71h0Z"/>
            <rect class="cls-11" x="108" y="47.69" width="5.24" height="26.22" rx="2.03" ry="2.03"/>
            <g>
              <polygon class="cls-11" points="109.5 2.59 108.96 23.49 111.68 23.44 116.09 2.47 109.5 2.59"/>
              <polygon class="cls-11" points="95.22 6.88 102.17 25.74 104.73 24.83 101.42 4.66 95.22 6.88"/>
              <polygon class="cls-11" points="82.79 14.79 95.99 29.53 98.15 27.87 88.01 10.77 82.79 14.79"/>
            </g>
            <g>
              <path class="cls-11" d="M16.64,220.59l-2.86-1.43v-4.57L.04,207.72v-3.37l13.74,6.87v-4.57l2.86,1.43v12.51h0Z"/>
              <path class="cls-11" d="M16.64,234.91L.04,226.6v-2.81l10.27-1.33L.04,217.32v-3.2l16.6,8.31v2.79l-10.42,1.28,10.42,5.21s0,3.2,0,3.2Z"/>
              <path class="cls-11" d="M5.89,236.19L.04,233.26v-3.37l16.6,8.31v5.94c0,3.82-1.76,5.33-5.32,3.55-3.51-1.76-5.44-5.08-5.44-8.93v-2.57h0ZM8.73,239.7c0,2.33.82,3.73,2.6,4.62,1.59.79,2.45.24,2.45-2.09v-2.09l-5.05-2.53v2.09Z"/>
            </g>
          </g>
        </g>
        <g>
          <path class="cls-3" d="M136.35,20.74L9.46,84.19c-5.8,2.9-9.46,8.83-9.46,15.31v140.84c0,6.48,3.66,12.41,9.46,15.31l62.54,32.17c4.82,2.41,10.49,2.41,15.31,0l126.88-63.44c5.8-2.9,9.46-8.83,9.46-15.31V68.23c0-6.48-3.66-12.41-9.46-15.31l-62.54-32.17c-4.82-2.41-10.49-2.41-15.31,0h.01Z"/>
          <g>
            <path class="cls-7" d="M213.15,101.45v61.27c0,6.39-3.61,12.23-9.33,15.09l-92.25,46.13c-11.22,5.61-24.42-2.55-24.42-15.09v-61.27c0-6.39,3.61-12.23,9.33-15.09l92.25-46.13c11.22-5.61,24.42,2.55,24.42,15.09Z"/>
            <path class="cls-8" d="M213.15,104.45v61.27c0,6.39-3.61,12.23-9.33,15.09l-92.25,46.13c-11.22,5.61-24.42-2.55-24.42-15.09v-61.27c0-6.39,3.61-12.23,9.33-15.09l92.25-46.13c11.22-5.61,24.42,2.55,24.42,15.09Z"/>
            <path class="cls-5" d="M216.15,104.45v61.27c0,6.39-3.61,12.23-9.33,15.09l-92.25,46.13c-11.22,5.61-24.42-2.55-24.42-15.09v-61.27c0-6.39,3.61-12.23,9.33-15.09l92.25-46.13c11.22-5.61,24.42,2.55,24.42,15.09Z"/>
            <path class="cls-10" d="M214.65,102.95v61.27c0,6.39-3.61,12.23-9.33,15.09l-92.25,46.13c-11.22,5.61-24.42-2.55-24.42-15.09v-61.27c0-6.39,3.61-12.23,9.33-15.09l92.25-46.13c11.22-5.61,24.42,2.55,24.42,15.09Z"/>
          </g>
          <path class="cls-9" d="M277.34,225.34l-51.69-25.84c-3.23-1.62-7.04-1.57-10.23.13l-124.02,66.14c-3.63,1.94-5.9,5.72-5.9,9.84v4.42c0,4.22,2.39,8.08,6.16,9.97l51.69,25.84c3.23,1.62,7.04,1.57,10.23-.13l124.02-66.14c3.63-1.94,5.9-5.72,5.9-9.84v-4.42c0-4.22-2.39-8.08-6.16-9.97h0Z"/>
          <path class="cls-4" d="M111,46.14c.17-6.18-14.7-13.02-24.5-11.12-9.32,1.81-8.47,10.43-23.6,16.65-6.95,2.86-11.99,3.04-11.93,4.36.11,2.29,15.55,4.82,30.27,2.99,10.6-1.31,29.57-5.97,29.76-12.87h0Z"/>
          <path class="cls-4" d="M109.63,47.68c-.29-2.01-.69-7.1,2.43-12.64,1.19-2.12,4.42-7.83,10.21-9.33,5.96-1.55,8.48,2.97,13.76,1.3,6.15-1.94,7.51-9.56,10.21-9.33,2.46.21,4.29,5.69,3.56,10.63-1.46,9.84-12.85,15.82-14.42,16.65-11.43,6-22.95,3.42-25.75,2.71h0Z"/>
          <rect class="cls-4" x="108" y="41.22" width="5.24" height="26.22" rx="2.03" ry="2.03"/>
          <g>
            <polygon class="cls-2" points="109.5 .13 108.96 21.02 111.68 20.97 116.09 0 109.5 .13"/>
            <polygon class="cls-2" points="95.22 4.41 102.17 23.28 104.73 22.36 101.42 2.2 95.22 4.41"/>
            <polygon class="cls-2" points="82.79 12.32 95.99 27.06 98.15 25.4 88.01 8.3 82.79 12.32"/>
          </g>
        </g>
      </g>
      <g>
        <path class="cls-9" d="M121.75,192.22l-.13-26.73-7.18,3.64-.02-4.46,21.54-10.91.02,4.46-7.18,3.64.13,26.73-7.18,3.64h0Z"/>
        <path class="cls-9" d="M140.41,182.77l-.16-31.18,7.18-3.64.02,4.46,3.59-1.82.02,4.45,3.59-1.82.02,4.46,3.59-1.82-.07-13.36,7.18-3.64.16,31.18-7.18,3.64-.04-8.91-3.59,1.82-.02-4.46-3.59,1.82-.02-4.46-3.59,1.82.09,17.82-7.18,3.64h0Z"/>
        <path class="cls-9" d="M168.13,168.72l-.16-31.18,21.54-10.91.02,4.46,3.59-1.82.07,13.36-3.59,1.82.02,4.46-14.36,7.28.04,8.91-7.18,3.64v-.02ZM175.24,151.72l10.77-5.46-.07-13.36-10.77,5.46.07,13.36Z"/>
      </g>
      <g>
        <path class="cls-1" d="M121.75,188.4l-.13-26.73-7.18,3.64-.02-4.46,21.54-10.91.02,4.46-7.18,3.64.13,26.73-7.18,3.64h0Z"/>
        <path class="cls-1" d="M140.41,178.94l-.16-31.18,7.18-3.64.02,4.46,3.59-1.82.02,4.45,3.59-1.82.02,4.46,3.59-1.82-.07-13.36,7.18-3.64.16,31.18-7.18,3.64-.04-8.91-3.59,1.82-.02-4.46-3.59,1.82-.02-4.46-3.59,1.82.09,17.82-7.18,3.64h0Z"/>
        <path class="cls-1" d="M168.13,164.9l-.16-31.18,21.54-10.91.02,4.46,3.59-1.82.07,13.36-3.59,1.82.02,4.46-14.36,7.28.04,8.91-7.18,3.64v-.02ZM175.24,147.9l10.77-5.46-.07-13.36-10.77,5.46.07,13.36Z"/>
      </g>
    </g>
  </g>
</svg>